<svg width="64" height="58" viewBox="0 0 64 58" fill="none" xmlns="http://www.w3.org/2000/svg">
<rect width="64" height="58" rx="29" fill="#FFEAD5"/>
<path d="M38.6666 17.6667H25.3333C21.3333 17.6667 18.6666 19.6667 18.6666 24.3334V33.6667C18.6666 38.3334 21.3333 40.3334 25.3333 40.3334H38.6666C42.6666 40.3334 45.3333 38.3334 45.3333 33.6667V24.3334C45.3333 19.6667 42.6666 17.6667 38.6666 17.6667ZM39.2933 25.7867L35.12 29.1201C34.24 29.8267 33.12 30.1734 32 30.1734C30.88 30.1734 29.7466 29.8267 28.88 29.1201L24.7066 25.7867C24.28 25.4401 24.2133 24.8001 24.5466 24.3734C24.8933 23.9467 25.52 23.8667 25.9466 24.2134L30.12 27.5467C31.1333 28.3601 32.8533 28.3601 33.8666 27.5467L38.04 24.2134C38.4666 23.8667 39.1066 23.9334 39.44 24.3734C39.7866 24.8001 39.72 25.4401 39.2933 25.7867Z" fill="#FD853A"/>
</svg>
