<svg width="80" height="80" viewBox="0 0 80 80" fill="none" xmlns="http://www.w3.org/2000/svg">
<path d="M0 40C0 62.0914 17.9086 80 40 80C62.0914 80 80 62.0914 80 40C80 17.9086 62.0914 0 40 0C17.9086 0 0 17.9086 0 40Z" fill="#1976D2"/>
<path d="M46.4733 35.6267C46.4733 33.6237 44.8496 32 42.8467 32H20.6267C18.6237 32 17 33.6237 17 35.6267C17 37.6296 18.6237 39.2533 20.6267 39.2533H22.2856C25.2047 39.2533 27.5711 41.6198 27.5711 44.5389V67.8122C27.5711 70.1251 29.446 72 31.7589 72C34.0717 72 35.9467 70.1251 35.9467 67.8122V44.5167C35.9467 41.6098 38.3031 39.2533 41.21 39.2533H42.8467C44.8496 39.2533 46.4733 37.6296 46.4733 35.6267Z" fill="white"/>
<path d="M69.5943 35.6564C69.5054 38.0185 66.7397 39.5149 64.4569 38.9016C63.3695 38.6094 62.17 38.4077 60.9311 38.4077C56.4422 38.4077 54.8267 40.541 54.8267 42.821C54.8267 48.7054 71.2289 48.1165 71.2289 59.9588C71.2289 74.8327 54.6029 72.2 48.4631 70.7207C47.1132 70.3955 46.22 69.1692 46.22 67.7808C46.22 65.1391 49.4337 63.4011 51.9547 64.1903C53.3959 64.6415 55.0243 64.9632 56.7378 64.9632C62.4733 64.9632 62.2556 61.2121 62.2556 60.6965C62.2556 55.2543 46 55.2543 46 43.1899C46 29.9747 61.3745 31.6076 67.3493 32.7411C68.7298 33.003 69.6471 34.2522 69.5943 35.6564Z" fill="white"/>
</svg>
